<?xml version="1.0" encoding="UTF-8"?>
<!DOCTYPE svg PUBLIC "-//W3C//DTD SVG 1.1//EN" "http://www.w3.org/Graphics/SVG/1.1/DTD/svg11.dtd">
<svg xmlns="http://www.w3.org/2000/svg" version="1.1" viewBox="0 0 33 33" stroke="none">
	<rect width="100%" height="100%" fill="#ffffff"/>
	<path d="M4,4h7v1h-7z M12,4h1v5h-1z M17,4h2v1h-2z M20,4h1v1h-1z M22,4h7v1h-7z M4,5h1v6h-1z M10,5h1v6h-1z M15,5h2v1h-2z M18,5h1v4h-1z M19,5h1v1h-1z M22,5h1v6h-1z M28,5h1v6h-1z M6,6h3v3h-3z M13,6h2v1h-2z M16,6h2v1h-2z M20,6h1v1h-1z M24,6h3v3h-3z M13,7h1v1h-1z M17,7h1v1h-1z M16,8h1v3h-1z M20,8h1v1h-1z M13,9h3v1h-3z M17,9h1v1h-1z M19,9h1v1h-1z M5,10h5v1h-5z M12,10h1v2h-1z M14,10h1v5h-1z M18,10h1v4h-1z M20,10h1v1h-1z M23,10h5v1h-5z M13,11h1v1h-1z M15,11h1v2h-1z M17,11h1v1h-1z M19,11h1v1h-1z M5,12h2v1h-2z M8,12h1v1h-1z M10,12h2v1h-2z M20,12h1v1h-1z M22,12h1v1h-1z M24,12h5v1h-5z M4,13h1v1h-1z M6,13h2v1h-2z M9,13h1v1h-1z M11,13h1v1h-1z M13,13h1v1h-1z M16,13h1v1h-1z M19,13h1v1h-1z M23,13h1v1h-1z M25,13h3v1h-3z M5,14h1v2h-1z M7,14h1v1h-1z M10,14h1v1h-1z M15,14h1v1h-1z M17,14h1v1h-1z M20,14h1v1h-1z M22,14h1v2h-1z M24,14h1v1h-1z M4,15h1v1h-1z M12,15h1v1h-1z M19,15h1v1h-1z M23,15h1v1h-1z M25,15h1v1h-1z M27,15h1v6h-1z M6,16h1v3h-1z M9,16h1v3h-1z M10,16h1v1h-1z M14,16h2v1h-2z M20,16h1v1h-1z M26,16h1v1h-1z M28,16h1v2h-1z M7,17h2v1h-2z M12,17h2v1h-2z M16,17h1v1h-1z M19,17h1v1h-1z M23,17h3v1h-3z M4,18h1v1h-1z M8,18h1v1h-1z M10,18h2v1h-2z M13,18h3v1h-3z M17,18h2v1h-2z M20,18h1v1h-1z M26,18h1v1h-1z M5,19h1v1h-1z M7,19h1v2h-1z M12,19h2v1h-2z M16,19h1v1h-1z M18,19h2v1h-2z M22,19h1v2h-1z M25,19h1v1h-1z M4,20h1v1h-1z M6,20h1v1h-1z M10,20h1v1h-1z M13,20h2v1h-2z M17,20h2v1h-2z M20,20h1v5h-1z M21,20h1v1h-1z M23,20h2v1h-2z M26,20h1v1h-1z M12,21h1v2h-1z M19,21h1v2h-1z M24,21h1v5h-1z M4,22h7v1h-7z M13,22h1v1h-1z M16,22h1v2h-1z M18,22h1v1h-1z M22,22h1v1h-1z M26,22h1v1h-1z M28,22h1v1h-1z M4,23h1v6h-1z M10,23h1v6h-1z M14,23h1v1h-1z M25,23h1v2h-1z M27,23h1v3h-1z M6,24h3v3h-3z M12,24h1v1h-1z M15,24h1v2h-1z M18,24h1v2h-1z M21,24h3v2h-3z M26,24h1v3h-1z M14,25h1v1h-1z M16,25h1v1h-1z M12,26h2v2h-2z M20,26h1v3h-1z M22,26h2v1h-2z M25,26h1v3h-1z M28,26h1v3h-1z M17,27h3v1h-3z M21,27h1v1h-1z M27,27h1v1h-1z M5,28h5v1h-5z M13,28h1v1h-1z M15,28h2v1h-2z M22,28h3v1h-3z" fill="#000000"/>
</svg>
